<?xml version="1.0" standalone="no"?>
<!DOCTYPE svg PUBLIC "-//W3C//DTD SVG 20010904//EN"
 "http://www.w3.org/TR/2001/REC-SVG-20010904/DTD/svg10.dtd">
<svg version="1.0" xmlns="http://www.w3.org/2000/svg"
 width="640.000000pt" height="640.000000pt" viewBox="0 0 640.000000 640.000000"
 preserveAspectRatio="xMidYMid meet">
<metadata>
Created by potrace 1.14, written by Peter Selinger 2001-2017
</metadata>
<g transform="translate(0.000000,640.000000) scale(0.100000,-0.100000)"
fill="#000000" stroke="none">
<path d="M1190 5446 c-3 -3 -17 -7 -32 -10 -14 -2 -36 -9 -47 -16 -12 -6 -21
-8 -21 -5 0 6 -45 -32 -76 -65 -42 -44 -58 -132 -55 -305 0 -37 1 -103 0 -117
0 -10 1 -33 1 -50 0 -18 -1 -61 -2 -96 -2 -34 -1 -62 2 -62 3 0 4 -28 2 -62
-4 -84 -4 -72 -2 -165 1 -45 -1 -87 -4 -92 -4 -5 -3 -12 2 -15 4 -2 5 -32 2
-65 -3 -34 -3 -61 0 -61 4 0 3 -23 0 -51 -4 -29 -4 -68 0 -88 3 -20 3 -50 -1
-68 -3 -17 -3 -37 1 -43 4 -6 4 -29 0 -50 -4 -21 -4 -44 0 -50 4 -6 4 -26 1
-43 -4 -18 -4 -51 -1 -74 4 -24 4 -43 1 -43 -3 0 -5 -26 -4 -57 5 -132 4 -243
-1 -252 -4 -5 -3 -12 2 -15 4 -2 5 -32 2 -65 -3 -34 -2 -61 3 -61 4 0 5 -4 2
-10 -3 -5 -6 -56 -5 -112 0 -57 1 -111 1 -120 0 -10 0 -34 0 -53 0 -19 0 -43
-1 -52 0 -10 0 -31 0 -48 -4 -333 155 -640 425 -820 78 -51 164 -95 218 -110
4 -2 8 -3 10 -5 2 -2 12 -5 91 -24 93 -23 283 -35 308 -20 4 3 8 1 8 -3 0 -5
27 -6 61 -3 33 3 62 3 64 -1 3 -3 25 -3 50 1 25 4 45 4 45 0 0 -3 23 -4 50 0
27 4 50 4 50 0 0 -3 27 -3 61 0 33 3 63 2 65 -2 3 -5 10 -6 15 -2 5 3 47 5 92
4 93 -2 81 -2 165 2 34 2 62 1 62 -2 0 -3 28 -4 62 -2 97 4 159 3 168 -3 5 -3
11 -1 14 3 3 5 25 6 48 3 24 -4 57 -4 73 -1 17 3 50 3 75 0 25 -3 57 -3 70 0
14 4 36 4 50 0 14 -4 36 -4 50 0 14 3 43 3 65 0 22 -3 59 -3 83 0 24 4 45 3
48 -2 3 -5 9 -6 13 -4 8 5 41 7 171 7 108 0 181 5 222 15 18 4 40 8 48 10 74
10 235 82 329 147 220 151 391 442 404 690 1 15 5 27 9 27 3 0 3 13 -2 30 -5
16 -5 32 -1 34 4 3 41 5 82 5 41 1 90 1 109 2 19 1 41 1 48 0 6 -1 18 -2 25
-2 24 -2 233 11 262 16 79 16 125 27 185 47 36 12 65 20 65 19 0 -1 38 17 85
40 273 133 472 326 601 584 62 122 85 191 119 355 17 86 21 338 5 420 -3 19
-8 44 -10 55 -6 39 -43 161 -64 212 -96 241 -263 449 -478 594 -137 93 -303
162 -465 195 -77 15 -275 28 -358 24 -19 -1 -41 -2 -47 -1 -20 2 -44 2 -96 1
-26 -1 -50 1 -55 3 -4 3 -31 1 -59 -2 -29 -4 -53 -5 -53 -1 0 3 -27 3 -61 0
-33 -3 -63 -2 -65 2 -3 5 -10 6 -15 2 -5 -3 -47 -5 -92 -4 -93 2 -81 2 -165
-2 -34 -2 -62 -1 -62 2 0 3 -28 4 -62 2 -35 -1 -78 -2 -95 -2 -18 0 -41 1 -50
1 -19 -1 -101 0 -118 1 -5 0 -52 -1 -103 -2 -51 -1 -95 0 -98 3 -3 2 -20 1
-38 -3 -19 -4 -39 -4 -46 0 -6 4 -29 4 -51 0 -22 -4 -41 -4 -44 0 -2 4 -25 4
-50 0 -25 -4 -45 -4 -45 -1 0 3 -28 5 -62 3 -35 -1 -85 -2 -113 -1 -59 1 -55
1 -128 -1 -32 -1 -60 0 -63 3 -3 2 -20 1 -38 -3 -19 -4 -39 -4 -46 0 -6 4 -29
4 -51 0 -22 -4 -41 -4 -44 0 -2 4 -25 4 -50 0 -25 -4 -45 -4 -45 -1 0 5 -52 5
-140 1 -14 -1 -68 -1 -120 -1 -52 1 -123 0 -158 -1 -34 -2 -62 -1 -62 2 0 3
-28 4 -62 2 -35 -1 -79 -2 -98 -2 -19 1 -46 0 -60 0 -14 -1 -32 -2 -40 -1 -93
3 -222 1 -230 -4 -6 -3 -10 -2 -10 2 0 5 -27 6 -61 3 -33 -3 -63 -2 -65 2 -3
5 -10 6 -15 2 -9 -5 -120 -6 -252 -1 -31 1 -57 -1 -57 -4 0 -3 -19 -3 -42 0
-24 4 -62 4 -85 1 -24 -4 -44 -2 -45 2 -2 5 -6 7 -8 4z m3782 -651 c11 11 313
-3 313 -15 0 -1 8 -3 17 -5 10 -2 56 -22 103 -45 120 -57 227 -164 284 -282
48 -99 62 -155 67 -267 4 -95 -13 -190 -47 -266 -12 -27 -23 -52 -24 -55 -10
-48 -165 -211 -231 -245 -21 -11 -41 -23 -44 -26 -15 -21 -171 -60 -254 -65
-50 -3 -97 -7 -103 -9 -7 -3 -13 -1 -13 4 0 4 -22 5 -50 1 -27 -4 -50 -4 -50
-1 0 3 -31 5 -69 4 l-69 -2 -4 44 c-2 25 1 45 5 45 5 0 6 4 3 8 -6 9 -7 45 -7
227 0 72 0 135 -1 140 0 6 1 21 2 35 0 14 1 41 0 60 0 19 1 63 2 98 2 34 1 62
-2 62 -3 0 -4 28 -2 62 1 35 2 119 1 188 0 134 0 133 2 183 0 17 0 37 -1 42
-1 6 -2 27 -1 47 l1 38 61 -1 c33 -1 63 1 66 5 3 3 13 1 23 -4 10 -5 19 -7 22
-5z"/>
<path d="M185 1602 c-2 -3 -28 -5 -57 -4 -48 0 -56 -4 -85 -35 -45 -48 -53
-114 -29 -228 3 -11 5 -21 6 -22 2 -2 3 -6 4 -10 10 -55 73 -152 140 -217 81
-77 166 -114 286 -122 41 -3 78 -7 81 -10 4 -2 10 0 13 4 3 5 22 6 43 3 21 -4
55 -4 75 0 20 3 42 3 48 -1 6 -4 29 -4 50 0 21 4 44 4 50 0 6 -4 26 -4 43 -1
18 4 48 4 68 1 20 -4 59 -4 88 0 28 3 51 4 51 0 0 -3 27 -3 61 0 33 3 63 2 65
-2 3 -5 10 -6 15 -2 5 3 47 5 92 4 93 -2 81 -2 165 2 34 2 62 1 62 -2 0 -3 28
-4 62 -2 35 1 79 2 98 2 19 -1 46 0 60 0 14 1 32 2 40 1 93 -3 222 -1 230 4 6
3 10 2 10 -2 0 -5 27 -6 61 -3 33 3 63 2 65 -2 3 -5 10 -6 15 -2 9 5 120 6
252 1 31 -1 57 1 57 4 0 3 19 3 43 -1 23 -3 56 -3 74 1 17 3 37 3 43 -1 6 -4
29 -4 50 0 21 4 44 4 50 0 6 -4 26 -4 43 -1 18 4 48 4 68 1 20 -4 59 -4 88 0
28 3 51 4 51 0 0 -3 27 -3 61 0 33 3 63 2 65 -2 3 -5 10 -6 15 -2 5 3 47 5 92
4 93 -2 81 -2 165 2 34 2 62 1 62 -2 0 -3 28 -4 62 -2 35 1 79 2 98 2 19 -1
46 0 60 0 14 1 32 2 40 1 93 -3 222 -1 230 4 6 3 10 2 10 -2 0 -5 27 -6 61 -3
33 3 63 2 65 -2 3 -5 10 -6 15 -2 9 5 120 6 252 1 31 -1 57 1 57 4 0 3 19 3
43 -1 23 -3 56 -3 74 1 17 3 37 3 43 -1 6 -4 29 -4 50 0 21 4 44 4 50 0 6 -4
26 -4 43 -1 18 4 48 4 68 1 20 -4 59 -4 88 0 28 3 51 4 51 0 0 -3 27 -3 61 0
33 3 62 3 64 -1 3 -3 25 -3 50 1 25 4 45 4 45 0 0 -3 23 -4 50 0 28 4 50 4 50
0 0 -3 27 -3 61 0 33 3 62 3 64 -1 3 -3 24 -3 49 1 24 3 52 5 61 4 20 -3 107
-6 115 -5 3 1 34 3 70 6 116 7 205 49 296 141 35 36 64 71 64 79 0 7 3 15 8
17 12 5 51 99 61 146 5 24 8 72 7 107 -5 106 -52 148 -161 145 -11 -1 -68 0
-128 0 -59 1 -112 -2 -117 -5 -6 -3 -10 -2 -10 2 0 5 -27 6 -61 3 -33 -3 -63
-2 -65 2 -3 5 -10 6 -15 2 -9 -5 -120 -6 -252 -1 -31 1 -57 -1 -57 -4 0 -3
-19 -3 -42 1 -24 3 -57 3 -75 -1 -17 -3 -37 -3 -43 1 -6 4 -29 4 -50 0 -21 -4
-44 -4 -50 0 -6 4 -26 4 -43 1 -18 -4 -48 -4 -68 -1 -20 4 -59 4 -88 0 -28 -3
-51 -4 -51 0 0 3 -27 3 -61 0 -33 -3 -63 -2 -65 2 -3 5 -10 6 -15 2 -5 -3 -47
-5 -92 -4 -93 2 -81 2 -165 -2 -34 -2 -62 -1 -62 2 0 3 -28 4 -62 2 -35 -1
-79 -2 -98 -2 -19 1 -46 0 -60 0 -14 -1 -31 -2 -37 -1 -7 0 -60 0 -118 0 -109
0 -126 0 -147 2 -7 1 -35 1 -63 0 -27 0 -59 -1 -70 -1 -11 1 -56 1 -100 1 -44
0 -106 1 -138 2 -31 1 -57 -1 -57 -4 0 -3 -19 -3 -42 1 -24 3 -57 3 -75 -1
-17 -3 -37 -3 -43 1 -6 4 -29 4 -50 0 -21 -4 -44 -4 -50 0 -6 4 -26 4 -43 1
-18 -4 -48 -4 -68 -1 -20 4 -59 4 -88 0 -28 -3 -51 -4 -51 0 0 3 -27 3 -61 0
-33 -3 -63 -2 -65 2 -3 5 -10 6 -15 2 -5 -3 -47 -5 -92 -4 -93 2 -81 2 -165
-2 -34 -2 -62 -1 -62 2 0 3 -28 4 -62 2 -35 -1 -79 -2 -98 -2 -19 1 -46 0 -60
0 -14 -1 -32 -2 -40 -1 -93 3 -222 1 -230 -4 -6 -3 -10 -2 -10 2 0 5 -27 6
-61 3 -33 -3 -63 -2 -65 2 -3 5 -10 6 -15 2 -9 -5 -120 -6 -252 -1 -31 1 -57
-1 -57 -4 0 -3 -19 -3 -42 1 -24 3 -57 3 -75 -1 -17 -3 -37 -3 -43 1 -6 4 -29
4 -50 0 -21 -4 -44 -4 -50 0 -6 4 -26 4 -43 1 -18 -4 -48 -4 -68 -1 -20 4 -59
4 -88 0 -28 -3 -51 -4 -51 0 0 3 -27 3 -61 0 -33 -3 -63 -2 -65 2 -3 5 -10 6
-15 2 -5 -3 -47 -5 -92 -4 -93 2 -81 2 -165 -2 -34 -2 -62 -1 -62 2 0 3 -25 5
-55 5 -30 0 -55 -3 -55 -6 0 -3 -23 -3 -50 1 -28 4 -52 4 -55 2z"/>
</g>
</svg>
